<?xml version="1.0" encoding="UTF-8" standalone="no"?><!DOCTYPE svg PUBLIC "-//W3C//DTD SVG 1.1//EN" "http://www.w3.org/Graphics/SVG/1.1/DTD/svg11.dtd"><svg width="100%" height="100%" viewBox="0 0 53 36" version="1.1" xmlns="http://www.w3.org/2000/svg" xmlns:xlink="http://www.w3.org/1999/xlink" xml:space="preserve" xmlns:serif="http://www.serif.com/" style="fill-rule:evenodd;clip-rule:evenodd;stroke-linejoin:round;stroke-miterlimit:2;"><g id="banana-tree"></g><g id="water-well"></g><g id="olive-tree" serif:id="olive tree"></g><g id="infiltration-pond"><path d="M28.954,36.059l-3.977,-0.804l-23.849,-16l25.26,-17.231l2.871,1.883l-0.305,32.152Z" style="fill:#8c8c8c;fill-opacity:0.5;"/><path d="M29.559,3.72l-18.183,12.403l0.008,2.12l18.183,-12.464l-0.008,-2.059Z" style="fill:#ce9e7e;"/><path d="M47.113,15.642l-17.554,-11.922l0,2.064l17.554,11.922l0,-2.064Z" style="fill:#e6c7b3;"/><path d="M52.416,15.794l-23.462,16.004l0.012,4.252l23.462,-16.005l-0.012,-4.251Z" style="fill:#ce9e7e;"/><path d="M28.954,31.798l-23.151,-15.715l0.012,3.834l23.152,16.133l-0.013,-4.252Z" style="fill:#e6c7b3;"/><path d="M29.383,-0.019l-23.566,16.093l23.137,15.724l23.462,-16.004l-23.033,-15.813Zm0.181,3.718l-18.188,12.425l17.591,11.944l18.152,-12.4l-17.555,-11.969Z" style="fill:#f2e3d9;"/><path d="M29.559,5.784l-16.667,11.371l16.075,10.924l16.66,-11.375l-16.068,-10.92Z" style="fill:#99d2df;"/></g><g id="house_1"></g><g id="treatment-plant"><g id="digestion-tower"></g><g id="digestion-tower1" serif:id="digestion-tower"></g><g id="plant-building"></g><g id="plant-building1" serif:id="plant-building"></g><g id="aeration-basins"></g><g id="clarifier"></g><g id="clarifier1" serif:id="clarifier"></g></g></svg>