<?xml version="1.0" encoding="UTF-8" standalone="no"?><!DOCTYPE svg PUBLIC "-//W3C//DTD SVG 1.1//EN" "http://www.w3.org/Graphics/SVG/1.1/DTD/svg11.dtd"><svg width="100%" height="100%" viewBox="0 0 824 666" version="1.1" xmlns="http://www.w3.org/2000/svg" xmlns:xlink="http://www.w3.org/1999/xlink" xml:space="preserve" xmlns:serif="http://www.serif.com/" style="fill-rule:evenodd;clip-rule:evenodd;stroke-linejoin:round;stroke-miterlimit:2;"><g transform="matrix(1,0,0,1,-32,-117)"><g id="river" transform="matrix(0.343257,-0.363494,-0.3008,-0.318533,66.6058,1300.92)"><g id="river1" serif:id="river"><g transform="matrix(5.16707,0,2.8683e-16,5.16707,-20658.2,-26454.6)"><path d="M4166.36,5280.77c0,0 2.639,0.757 12.409,-4.257c1.268,-0.65 4.242,-0.804 7.202,-1.525c2.268,-0.553 3.099,-2.464 5.497,-3.107c2.66,-0.713 6.878,-0.151 9.136,-0.563c3.75,-0.683 3.836,-0.04 5.72,-1.202c2.259,-1.394 4.506,-2.947 6.757,-4.546c1.039,-0.739 3.765,-2.501 4.913,-2.977c2.438,-1.011 4.584,-1.66 6.854,-2.087c6.835,-1.284 14.772,-4.623 21.123,-5.152c3.48,-0.29 2.458,1.775 5.516,1.046c4.262,-1.015 7.556,-3.6 11.276,-5.34c4.21,-1.968 5.068,-7.965 8.201,-11.313c5.547,-5.926 8.834,-8.341 14.45,-11.563c9.438,-5.414 12.263,-1.639 20.022,-3.122c1.395,-0.267 2.498,-1.54 3.594,-1.447c8.591,0.732 10.69,0.82 12.777,1.652c5.223,2.081 11.615,-2.581 16.61,-4.666c4.016,-1.676 6.045,-4.956 7.978,-6.102c3.907,-2.315 14.271,-9.908 17.807,-11.95c2.194,-1.267 2.73,-2.908 4.955,-3.647c3.03,-1.006 6.585,-1.133 8.868,-1.227c13.374,-0.55 13.5,4.368 23.723,-1.267c1.233,-0.681 3.065,1.163 5.545,0.862c2.558,-0.31 5.018,-0.421 7.101,-0.302c2.629,0.149 2.292,1.647 5.124,1.794c1.861,0.097 3.71,-1.99 5.895,-1.805c1.089,0.092 3.147,1.846 4.788,2.324c2.442,0.711 4.505,0.237 5.476,0.502c10.863,2.971 11.386,-14.822 29.524,-0.788c5.218,4.038 7.957,1.887 12.841,-0.559c5.767,-2.889 13.708,-6.433 20.479,-4.171c17.602,5.879 25.806,15.471 25.917,24.033c0.122,9.35 6.607,12.306 6.607,12.306l-1.097,1.251c-0,0 -7.004,-4.276 -7.084,-12.636c-0.102,-10.685 -13.471,-18.624 -25.498,-22.906c-4.715,-1.679 -11.749,1.616 -18.039,4.428c-5.027,2.247 -9.369,4.507 -13.336,1.522c-19.365,-14.572 -14.099,0.27 -29.692,0.356c-1.348,0.007 -4.754,-0.215 -7.112,-0.971c-1.666,-0.534 -2.136,-1.574 -3.948,-1.931c-1.122,-0.222 -4.95,1.777 -6.098,1.594c-3.062,-0.488 -3.071,-1.659 -5.64,-2.03c-1.829,-0.264 -4.181,0.058 -6.652,0.391c-2.693,0.364 -3.839,-0.905 -6.112,0.336c-10.334,5.641 -12.226,-1.644 -24.862,0.469c-1.767,0.296 -4.398,0.018 -5.979,0.68c-2.496,1.045 -2.015,1.622 -4.35,3.329c-4.569,3.34 -11.245,8.458 -18.845,12.978c-2.222,1.321 -3.373,2.69 -7.81,5.738c-4.585,3.149 -12.434,5.624 -15.843,5.551c-8.209,-1.531 -9.426,-2.523 -13.104,-2.408c-0.858,0.027 -3.544,1.196 -5.072,1.679c-4.815,1.522 -10.093,0.025 -14.365,1.168c-5.369,1.437 -12.151,6.154 -17.925,12.565c-1.756,1.949 -6.305,10.531 -8.849,12.179c-2.612,1.692 -5.381,3.031 -8.622,3.856c-2.579,0.656 -3.021,1.348 -4.774,1.566c-1.368,0.17 -4.161,-2.121 -5.663,-1.669c-7.522,2.26 -16.904,4.547 -26.52,7.808c-1.833,0.622 -9.539,7.002 -11.373,7.648c-2.092,0.736 -3.099,1.322 -5.086,1.997c-1.594,0.543 -4.124,0.349 -5.642,0.852c-2.426,0.804 -4.585,2.046 -6.792,2.748c-2.49,0.793 -5.074,1.07 -7.254,1.721c-1.937,0.579 -4.446,1.919 -6.09,2.413c-7.319,2.197 -10.872,2.697 -10.872,2.697l1.315,-4.803Z" style="fill:#20bfdf;"/></g><g transform="matrix(5.16707,0,2.8683e-16,5.16707,-20658.2,-26454.6)"><path d="M4149.13,5281.36c3.176,-0.164 3.708,0.199 6.68,-0.139c2.085,-0.237 7.496,-0.359 11.882,-0.469c2.229,-0.056 9.224,-2.692 11.047,-3.608c2.906,-1.459 9.11,-1.006 11.383,-2.93c4.061,-3.436 9.46,-1.893 12.809,-2.057c5.706,-0.278 11.837,-8.621 16.494,-9.628c16.873,-3.647 11.905,-3.233 -1.134,1.859c-4.799,1.873 -9.05,6.84 -13.946,9.06c-2.781,1.261 -6.327,0.207 -8.882,1.39c-2.407,1.114 -3.734,1.916 -6.118,2.898c-2.508,1.033 -6.135,0.982 -8.42,1.948c-1.664,0.703 -2.319,1.431 -3.893,2.042c-3.92,1.523 -7.403,3.396 -10.645,4.088c-7.267,1.549 -17.212,3.212 -20.594,3.472c-9.436,0.724 -7.063,-7.39 3.337,-7.926Z" style="fill:#47cfeb;"/></g><g transform="matrix(5.16707,0,2.8683e-16,5.16707,-20658.2,-26454.6)"><path d="M4141.41,5272.4c-2.516,6.301 -2.349,8.297 7.728,8.96c1.792,0.118 4.647,0.965 7.106,1.015c5.955,0.122 5.4,1.371 13.515,-0.503c8.72,-2.014 13.517,-3.323 2.711,0.85c-11.138,4.302 -11.556,3.038 -16.833,4.093c-2.864,0.572 -8.072,2.445 -9.266,2.651c-2.368,0.411 -4.029,1.227 -5.088,1.316c-1.739,0.63 -6.671,1.147 -8.779,4.618c0.838,-5.748 2.74,-13.847 10.329,-25.763c-0.646,1.245 -1.076,1.892 -1.423,2.763Z" style="fill:#80dde7;"/></g></g></g></g></svg>