<?xml version="1.0" encoding="UTF-8" standalone="no"?><!DOCTYPE svg PUBLIC "-//W3C//DTD SVG 1.1//EN" "http://www.w3.org/Graphics/SVG/1.1/DTD/svg11.dtd"><svg width="100%" height="100%" viewBox="0 0 851 663" version="1.1" xmlns="http://www.w3.org/2000/svg" xmlns:xlink="http://www.w3.org/1999/xlink" xml:space="preserve" xmlns:serif="http://www.serif.com/" style="fill-rule:evenodd;clip-rule:evenodd;stroke-linejoin:round;stroke-miterlimit:2;"><rect id="Artboard2" x="0.05" y="-3" width="906.763" height="717.374" style="fill:none;"/><g id="river"><path d="M84.511,599.966c0,0 3.504,-6.201 28.625,-16.3c3.259,-1.31 8.775,-6.643 15.145,-11.016c4.882,-3.351 9.326,-1.766 14.579,-5.211c5.827,-3.822 12.433,-12.669 17.077,-16.233c7.713,-5.918 6.867,-7.139 12.015,-8.764c6.173,-1.949 12.572,-3.614 19.049,-5.208c2.991,-0.736 10.565,-2.956 13.34,-4.329c5.897,-2.916 10.712,-5.876 15.402,-9.438c14.118,-10.723 33.386,-20.136 45.473,-31.193c6.622,-6.059 1.6,-7.538 8.157,-12.083c9.137,-6.333 18.996,-8.266 28.298,-12.39c10.527,-4.667 21.369,3.591 32.13,3.216c19.048,-0.663 28.632,-2.862 43.599,-8.107c25.156,-8.815 26.3,-31.335 42.367,-43.467c2.888,-2.182 6.824,-2.157 8.622,-4.369c14.1,-17.341 16.237,-24.369 20.095,-28.716c24.027,-27.072 30.934,-35.13 47.644,-50.38c10.313,-9.411 36.259,-8.543 51.156,-8.776c6.204,-0.097 36.367,-11.583 41.294,-14.812c11.094,-7.272 17.426,-16.711 26.296,-20.746c9.165,-4.17 15.997,-10.308 20.873,-15.376c4.581,-4.761 5.678,-13.994 8.065,-18.84c2.755,-5.59 5.506,-10.729 10.299,-12.576c4.505,-1.735 16.286,-2.126 22.013,-6.31c5.328,-3.892 10.621,-8.849 11.931,-11.11c14.65,-25.294 43.233,3.009 53.589,-54.156c2.98,-16.446 11.181,-18.051 23.645,-23.197c14.719,-6.077 26.681,-35.914 37.134,-51.183c22.35,-32.646 53.019,-47.535 41.373,-68.675c-6.949,-12.616 1.999,-25.083 6.562,-30.221c-0.636,-0 -2.989,0.006 -3.735,0c-4.616,5.508 -14.172,19.34 -6.051,31.661c10.226,15.517 -24.587,39.352 -43.381,66.034c-7.465,10.6 -17.679,38.992 -33.204,46.176c-12.409,5.743 -23.624,10.179 -26.02,22.542c-11.698,60.355 -25.425,26.037 -53.216,55.183c-2.402,2.519 -9.35,10.641 -14.104,14.955c-3.94,3.575 -17.864,2.859 -20.166,4.812c-6.351,5.392 -6.868,8.5 -10.848,13.935c-2.834,3.869 -3.505,13.758 -8.406,17.85c-5.34,4.459 -5.313,8.955 -11.362,10.926c-18.914,6.162 -16.235,16.979 -36.114,25.145c-9.412,3.867 -30.143,12.672 -37.094,13.271c-19.485,1.679 -37.709,-3.175 -53.594,10.034c-11.157,9.278 -24.638,24.378 -45.796,47.765c-12.18,17.938 -13.799,22.858 -20.5,29.575c-1.565,1.568 -7.145,3.688 -10.606,5.763c-10.905,6.54 -21.939,29.916 -31.293,36.058c-11.756,7.72 -31.116,12.695 -51.322,12.987c-6.144,0.089 -27.551,-5.492 -34.623,-3.426c-7.263,2.121 -14.255,5.118 -21.285,9.848c-5.596,3.765 -7.453,3.455 -10.903,6.39c-2.69,2.289 -4.084,11.305 -7.448,13.382c-16.855,10.407 -37.051,24.265 -59.174,36.959c-4.216,2.419 -27.802,6.39 -32.06,8.774c-4.853,2.717 -7.55,3.644 -12.123,6.263c-3.671,2.102 -7.856,7.172 -11.331,9.196c-5.553,3.234 -11.312,5.244 -16.318,8.233c-5.649,3.373 -10.662,7.771 -15.54,10.792c-4.336,2.686 -10.87,5.193 -14.551,7.468c-16.398,10.131 -23.477,15.98 -23.477,15.98l9.798,5.435Z" style="fill:#20bfdf;"/><path d="M53.045,631.362c5.889,-5.697 6.267,-7.293 12.065,-12.319c4.066,-3.526 13.853,-13.487 21.802,-21.543c4.042,-4.096 20.546,-12.895 25.201,-14.811c7.424,-3.056 17.724,-15.455 24.744,-16.558c12.542,-1.971 19.723,-14.651 25.915,-20.671c10.553,-10.259 34.394,-8.042 44.22,-15.133c35.596,-25.688 26.141,-17.038 -4.901,-0.928c-11.424,5.928 -26.684,5.739 -38.815,11.28c-6.894,3.148 -11.545,11.541 -17.915,14.394c-6.001,2.687 -9.601,3.859 -15.356,6.722c-6.054,3.011 -12.407,9.905 -17.961,12.607c-4.045,1.968 -6.336,2.001 -10.079,3.951c-9.32,4.857 -18.408,8.314 -25.235,13.267c-15.296,11.099 -35.52,27.04 -41.921,32.964c-17.862,16.531 -1.043,25.429 18.236,6.778Z" style="fill:#47cfeb;"/><path d="M53.287,660.598c-14.255,-5.646 -17.062,-9.246 -0.219,-29.263c2.995,-3.56 6.741,-10.316 11.025,-15.018c10.372,-11.384 7.447,-12.396 24.754,-24.554c18.594,-13.063 29.137,-19.919 3.487,-6.492c-26.443,13.841 -25.22,16.706 -36.218,24.88c-5.968,4.437 -18.117,11.137 -20.557,13.04c-4.836,3.771 -9.052,5.547 -11.068,7.389c-4.063,2.231 -13.615,10.644 -22.747,8.889c10.418,7.887 26.381,17.644 58.361,23.003c-3.08,-0.836 -4.849,-1.094 -6.818,-1.874Z" style="fill:#80dde7;"/></g></svg>