<?xml version="1.0" encoding="UTF-8" standalone="no"?><!DOCTYPE svg PUBLIC "-//W3C//DTD SVG 1.1//EN" "http://www.w3.org/Graphics/SVG/1.1/DTD/svg11.dtd"><svg width="100%" height="100%" viewBox="0 0 131 91" version="1.1" xmlns="http://www.w3.org/2000/svg" xmlns:xlink="http://www.w3.org/1999/xlink" xml:space="preserve" xmlns:serif="http://www.serif.com/" style="fill-rule:evenodd;clip-rule:evenodd;stroke-linejoin:round;stroke-miterlimit:2;"><g id="banana-tree"></g><g id="water-well"></g><g id="olive-tree" serif:id="olive tree"></g><g id="infiltration-pond"></g><g id="house_1"></g><g id="treatment-plant"><path d="M126.447,52.771c3.442,-2.348 3.583,-6.275 0.376,-8.453l-60.3,-40.501c-3.206,-2.178 -8.475,-2.219 -11.917,0.128l-49.659,34.006c-3.441,2.347 -3.334,6.105 -0.128,8.283l60.604,40.705c3.206,2.178 8.435,1.965 11.877,-0.383l49.147,-33.785Z" style="fill:#999;"/><path d="M127.575,54.423c2.33,-1.589 3.464,-3.763 3.552,-5.859c0.091,-2.179 -0.922,-4.366 -3.179,-5.901c-0.003,-0.002 -0.006,-0.004 -0.009,-0.006l-60.301,-40.5c-3.802,-2.584 -10.067,-2.655 -14.159,0.136l-49.662,34.008c-2.369,1.616 -3.423,3.776 -3.427,5.851c-0.004,2.099 1.069,4.217 3.304,5.737c0.003,0.002 0.007,0.004 0.01,0.006l60.603,40.704c3.804,2.585 10.026,2.402 14.12,-0.39l49.153,-33.79l-0.005,0.004Zm-1.128,-1.652c3.442,-2.348 3.583,-6.275 0.376,-8.453l-60.3,-40.501c-3.206,-2.178 -8.475,-2.219 -11.917,0.128l-49.659,34.006c-3.441,2.347 -3.334,6.105 -0.128,8.283l60.604,40.705c3.206,2.178 8.435,1.965 11.877,-0.383l49.147,-33.785Z" style="fill:#808080;"/><path d="M27.941,44.99l-11.502,-2.221l-8.038,-5.462l11.964,-8.162l7.576,15.845Z" style="fill:#8c8c8c;"/><path d="M49.396,69.125l-1.73,-0.334l-21.597,-14.62l1.461,-0.98l-1.201,-0.754l3.338,-2.277l19.729,18.965Z" style="fill:#8c8c8c;"/><path d="M98.357,45.249l-11.503,-2.221l-16.365,-11.209l13.691,-9.319l12.353,12.041l1.824,10.708Z" style="fill:#8c8c8c;"/><path d="M96.934,57.676c-3.712,-2.434 -9.952,-2.189 -13.925,0.547l-14.251,9.88c-3.973,2.736 -4.184,6.934 -0.472,9.368c3.713,2.434 9.953,2.189 13.925,-0.547l14.252,-9.88c3.973,-2.736 4.184,-6.934 0.471,-9.368Z" style="fill:#999;"/><path d="M78.16,66.077c-2.533,-0.769 -4.255,-2.271 -4.255,-3.998c0,-2.507 3.633,-4.543 8.107,-4.543c0.516,0 -1.055,-0.356 -0.566,-0.304l-0,0l2.076,0.383c0.566,0.06 1.112,0.153 1.63,0.275l9.61,0.474l-9.491,9.025l-7.111,-1.312Z" style="fill:#8c8c8c;"/><path d="M66.634,74.25c-2.533,-0.768 -4.255,-2.271 -4.255,-3.998c0,-2.507 3.633,-4.543 8.107,-4.543c0.516,0 1.02,0.027 1.509,0.079l0,0l0.001,0c0.566,0.06 10.153,0.548 10.153,0.548l-9.491,9.025l-6.024,-1.111Z" style="fill:#8c8c8c;"/><path d="M98.667,56.512c-4.409,-2.89 -11.805,-2.586 -16.23,0.462l-15.381,10.671c-4.426,3.047 -4.93,8.206 -0.521,11.097c4.409,2.891 11.582,2.763 16.007,-0.284l15.872,-11.009c4.425,-3.048 4.662,-8.046 0.253,-10.937Zm-0.823,1.255c1.691,1.108 2.557,2.581 2.51,4.109c-0.049,1.578 -1.038,3.13 -2.791,4.337l-15.872,11.01c-3.964,2.728 -10.385,2.853 -14.333,0.265c-1.676,-1.099 -2.476,-2.597 -2.378,-4.142c0.103,-1.632 1.15,-3.242 2.927,-4.466l15.382,-10.672c3.969,-2.733 10.601,-3.034 14.555,-0.441l0,-0Z" style="fill:#808080;"/><path d="M71.226,9.697c-3.332,-2.136 -8.801,-1.99 -12.206,0.325l-12.209,8.365c-3.405,2.316 -3.463,5.93 -0.132,8.066c3.332,2.136 8.801,1.991 12.206,-0.325l12.209,-8.365c3.405,-2.316 3.464,-5.93 0.132,-8.066Z" style="fill:#999;"/><path d="M52.828,15.568c-1.521,-0.572 -2.523,-1.545 -2.523,-2.648c0,-1.759 3.964,-4.413 7.733,-4.369c0.442,0.005 1.287,0.082 1.287,0.082l10.832,1.785l-6.735,7.339l-9.376,-1.841c-0.433,-0.089 -0.841,-0.206 -1.217,-0.347l-0.001,-0.001l0,0Z" style="fill:#8c8c8c;"/><path d="M41.047,23.013c-1.521,-0.573 -2.523,-1.546 -2.523,-2.649c-0,-1.759 3.384,-3.757 6.523,-3.757c0.442,-0 0.873,0.028 1.287,0.082l0,-0l12.042,1.174l-6.736,7.338l-9.375,-1.841c-0.433,-0.089 -0.841,-0.206 -1.218,-0.347l0,-0l0,-0Z" style="fill:#8c8c8c;"/><path d="M72.448,8.905c-3.935,-2.522 -10.191,-2.488 -13.962,0.078l-13.523,9.268c-3.771,2.565 -3.638,6.696 0.297,9.219c3.935,2.522 10.191,2.488 13.962,-0.078l13.523,-9.267c3.771,-2.566 3.638,-6.697 -0.297,-9.22Zm-0.81,1.263c1.47,0.943 2.309,2.132 2.349,3.379c0.039,1.222 -0.706,2.398 -2.086,3.337l-13.523,9.269c-3.325,2.261 -8.84,2.278 -12.308,0.054c-1.47,-0.943 -2.309,-2.132 -2.349,-3.379c-0.039,-1.221 0.706,-2.398 2.086,-3.337l13.523,-9.269c3.325,-2.261 8.84,-2.278 12.308,-0.054l0,0Z" style="fill:#808080;"/><g id="digestion-tower"><path d="M59.325,5.413l12.425,-0c0,-0 -0.063,4.706 0,9.12c0.025,1.754 -2.783,3.443 -6.212,3.443c-3.429,0 -6.171,-1.671 -6.213,-3.443l-0,-9.12Z" style="fill:url(#_Linear1);"/><ellipse cx="65.538" cy="4.807" rx="6.213" ry="3.482" style="fill:#fff;"/></g><g id="digestion-tower1" serif:id="digestion-tower"><path d="M48.014,12.972l12.426,-0c-0,-0 -0.063,4.706 -0,9.12c0.025,1.754 -2.784,3.443 -6.213,3.443c-3.429,0 -6.171,-1.671 -6.213,-3.443l0,-9.12Z" style="fill:url(#_Linear2);"/><ellipse cx="54.227" cy="12.366" rx="6.213" ry="3.482" style="fill:#fff;"/></g><g id="plant-building"><path d="M41.601,23.995l-13.657,9.207l-0.003,11.788l13.657,-9.33l0.003,-11.665Z" style="fill:#fff;"/><path d="M36.819,33.935l-1.575,1.059l0,3.389l1.577,-1.06l-0.002,-3.388Z" style="fill:#c9b69c;"/><path d="M36.793,29.374l-1.576,1.058l0.001,3.389l1.576,-1.059l-0.001,-3.388Z" style="fill:#c9b69c;"/><path d="M39.309,27.657l-1.575,1.075l0.001,3.388l1.576,-1.075l-0.002,-3.388Z" style="fill:#c9b69c;"/><path d="M39.336,32.203l-1.575,1.074l0,3.389l1.576,-1.075l-0.001,-3.388Z" style="fill:#c9b69c;"/><path d="M19.878,27.563l8.063,5.638l-0,11.789l-8.063,-5.48l-0,-11.947Z" style="fill:#c9b69c;"/><path d="M25.237,36.782l1.826,1.241l-0,3l-1.826,-1.241l-0,-3Z" style="fill:#7a6952;"/><path d="M22.998,35.26l1.826,1.241l-0,3l-1.826,-1.241l-0,-3Z" style="fill:#7a6952;"/><path d="M20.79,33.76l1.827,1.241l-0,3l-1.827,-1.241l0,-3Z" style="fill:#7a6952;"/><path d="M41.601,23.995l-8.062,-5.636l-13.661,9.204l8.063,5.638l13.66,-9.206Z" style="fill:#f0e7db;"/><path d="M39.664,23.971l-6.425,-4.366l-11.605,7.907l6.431,4.371l11.599,-7.912Z" style="fill:#88787b;"/><path d="M39.664,23.971l-6.425,-4.366l-0,0.681l5.937,4.018l0.488,-0.333Z" style="fill:#dbc9bd;"/><path d="M33.239,19.605l-11.605,7.907l0.582,0.395l11.023,-7.621l-0,-0.681Z" style="fill:#9f9191;"/></g><g id="plant-building1" serif:id="plant-building"><path d="M81.958,22.358l16.343,11.103l0.003,11.788l-16.344,-11.103l-0.002,-11.788Z" style="fill:#c9b69c;"/><path d="M90.826,33.793l2.689,1.828l-0.001,2.572l-2.691,-1.829l0.003,-2.571Z" style="fill:#7a6952;"/><path d="M90.871,30.392l2.689,1.815l-0.001,2.572l-2.691,-1.816l0.003,-2.571Z" style="fill:#7a6952;"/><path d="M86.574,27.46l2.69,1.827l-0.002,2.572l-2.69,-1.828l0.002,-2.571Z" style="fill:#7a6952;"/><path d="M86.529,30.873l2.689,1.828l-0.001,2.572l-2.69,-1.829l0.002,-2.571Z" style="fill:#7a6952;"/><path d="M106.265,28.065l-7.961,5.399l-0,11.789l7.961,-5.399l-0,-11.789Z" style="fill:#fff;"/><path d="M101.054,37.204l-1.648,1.124l-0,3.185l1.648,-1.124l-0,-3.185Z" style="fill:#c9b69c;"/><path d="M103.123,35.792l-1.648,1.125l0,3.185l1.648,-1.124l0,-3.186Z" style="fill:#c9b69c;"/><path d="M105.163,34.401l-1.648,1.124l-0,3.186l1.648,-1.125l-0,-3.185Z" style="fill:#c9b69c;"/><path d="M81.958,22.358l7.989,-5.29l16.318,10.997l-7.961,5.399l-16.346,-11.106Z" style="fill:#f0e7db;"/><path d="M84.17,22.487l5.969,-4.072l14.125,9.588l-6.015,4.029l-14.079,-9.545Z" style="fill:#88787b;"/><path d="M84.17,22.487l5.969,-4.072l0,0.892l-5.314,3.625l-0.655,-0.445Z" style="fill:#dbc9bd;"/><path d="M90.139,18.415l14.117,9.593l-0.671,0.459l-13.446,-9.16l0,-0.892Z" style="fill:#9f9191;"/></g><g id="aeration-basins"><path d="M62.157,29.977l-1.601,-1.083l-32.46,22.337l1.571,1.063l-1.367,0.932l21.096,14.323l35.06,-23.965l-21.088,-14.38l-1.211,0.773Z" style="fill:#f2e3d9;"/><g><path d="M35.609,50.722l-3.857,2.699l17.982,12.299l3.907,-2.666l-18.032,-12.332Z" style="fill:#99d2df;"/><path d="M35.609,50.722l-3.857,2.699l0.751,0.514l3.106,-2.137l0,-1.076Z" style="fill:#c1a08b;"/><path d="M53.641,63.055l-18.032,-12.333l0,1.076l17.258,11.784l0.774,-0.527Z" style="fill:#dbc9bd;"/></g><g><path d="M41.299,46.84l-3.857,2.699l17.982,12.299l3.907,-2.665l-18.032,-12.333Z" style="fill:#99d2df;"/><path d="M41.299,46.84l-3.857,2.699l0.751,0.514l3.106,-2.137l0,-1.076Z" style="fill:#c1a08b;"/><path d="M59.331,59.173l-18.032,-12.333l0,1.076l17.259,11.784l0.773,-0.527Z" style="fill:#dbc9bd;"/></g><g><path d="M46.692,43.161l-3.856,2.699l17.981,12.299l3.907,-2.665l-18.032,-12.333Z" style="fill:#99d2df;"/><path d="M46.692,43.161l-3.856,2.699l0.751,0.514l3.105,-2.137l0,-1.076Z" style="fill:#c1a08b;"/><path d="M64.724,55.494l-18.032,-12.333l0,1.076l17.259,11.784l0.773,-0.527Z" style="fill:#dbc9bd;"/></g><g><path d="M52.375,39.285l-3.857,2.699l17.982,12.299l3.907,-2.665l-18.032,-12.333Z" style="fill:#99d2df;"/><path d="M52.375,39.285l-3.857,2.699l0.751,0.514l3.106,-2.137l-0,-1.076Z" style="fill:#c1a08b;"/><path d="M70.406,51.618l-18.031,-12.333l-0,1.076l17.258,11.784l0.773,-0.527Z" style="fill:#dbc9bd;"/></g><g><path d="M58.257,35.272l-3.857,2.699l17.982,12.299l3.907,-2.665l-18.032,-12.333Z" style="fill:#99d2df;"/><path d="M58.257,35.272l-3.857,2.699l0.751,0.514l3.106,-2.137l0,-1.076Z" style="fill:#c1a08b;"/><path d="M76.289,47.605l-18.032,-12.333l0,1.076l17.259,11.785l0.773,-0.528Z" style="fill:#dbc9bd;"/></g><g><path d="M63.755,31.553l-3.857,2.699l17.982,12.299l3.907,-2.665l-18.032,-12.333Z" style="fill:#99d2df;"/><path d="M63.755,31.553l-3.857,2.699l0.751,0.514l3.106,-2.137l-0,-1.076Z" style="fill:#c1a08b;"/><path d="M81.787,43.886l-18.032,-12.333l-0,1.076l17.258,11.784l0.774,-0.527Z" style="fill:#dbc9bd;"/></g><path d="M84.476,43.598l-35.08,23.951l0,1.588l35.144,-23.948l-0.064,-1.591Z" style="fill:#c1a08b;"/><path d="M29.667,52.294l-1.571,-1.063l-0,1.574l0.408,0.282l1.163,-0.793Z" style="fill:#dbc9bd;"/><path d="M49.396,67.548l-21.096,-14.322l-0,1.574l21.096,14.337l0,-1.589Z" style="fill:#dbc9bd;"/></g><g id="clarifier"><path d="M80.299,57.307l16.453,0l0,5.873c0,2.334 -3.704,4.582 -8.266,4.582c-4.562,-0 -8.131,-2.224 -8.187,-4.582l0,-5.873Z" style="fill:url(#_Linear3);"/><path d="M88.526,52.697c4.54,-0 8.226,2.066 8.226,4.61c0,2.545 -3.686,4.611 -8.226,4.611c-4.541,-0 -8.227,-2.066 -8.227,-4.611c0,-2.544 3.686,-4.61 8.227,-4.61Zm-0,0.683c3.867,0 7.007,1.76 7.007,3.927c0,2.168 -3.14,3.928 -7.007,3.928c-3.868,-0 -7.008,-1.76 -7.008,-3.928c0,-2.167 3.14,-3.927 7.008,-3.927Z" style="fill:#fff;"/><path d="M83.292,59.912c-1.104,-0.69 -1.774,-1.604 -1.774,-2.605c0,-2.167 3.14,-3.927 7.008,-3.927c3.867,0 7.007,1.76 7.007,3.927c0,2.168 -3.14,3.928 -7.007,3.928c-1.92,-0 -3.661,-0.434 -4.927,-1.137l3.922,-2.271l-0,-0.366l-4.229,2.451Z" style="fill:url(#_Linear4);"/><path d="M81.554,57.706c0.357,-1.98 3.344,-3.528 6.972,-3.528c3.627,0 6.614,1.548 6.971,3.528c-0.357,1.981 -3.344,3.529 -6.971,3.529c-3.628,-0 -6.615,-1.548 -6.972,-3.529Z" style="fill:#99d2df;"/><path d="M86.802,56.707l3.448,0c-0,0 -0.018,-0.532 -0,0.693c0.007,0.487 -0.773,0.956 -1.724,0.956c-0.952,-0 -1.713,-0.464 -1.724,-0.956l-0,-0.693Z" style="fill:url(#_Linear5);"/><ellipse cx="88.534" cy="56.707" rx="1.716" ry="0.962" style="fill:#fff;"/><ellipse cx="88.534" cy="56.707" rx="1.402" ry="0.785" style="fill:#999;"/><path d="M86.908,57.015l-4.306,2.486l0.62,0.451l4.306,-2.486l-0.62,-0.451Z" style="fill:#fff;"/><path d="M83.292,59.912l0.28,0.172l0.027,0.014l3.922,-2.271l-0,-0.366l-4.229,2.451Z" style="fill:#b5b5b5;"/></g><g id="clarifier1" serif:id="clarifier"><path d="M67.922,65.358l16.454,0l-0,5.873c-0,2.334 -3.704,4.582 -8.267,4.582c-4.562,-0 -8.131,-2.224 -8.187,-4.582l0,-5.873Z" style="fill:url(#_Linear6);"/><path d="M76.149,60.748c4.54,-0 8.227,2.066 8.227,4.61c-0,2.545 -3.687,4.611 -8.227,4.611c-4.54,-0 -8.227,-2.066 -8.227,-4.611c0,-2.544 3.687,-4.61 8.227,-4.61Zm-0,0.683c3.868,-0 7.007,1.76 7.007,3.927c0,2.168 -3.139,3.928 -7.007,3.928c-3.868,-0 -7.008,-1.76 -7.008,-3.928c0,-2.167 3.14,-3.927 7.008,-3.927Z" style="fill:#fff;"/><path d="M70.916,67.963c-1.105,-0.69 -1.775,-1.604 -1.775,-2.605c0,-2.167 3.14,-3.927 7.008,-3.927c3.868,-0 7.007,1.76 7.007,3.927c0,2.168 -3.139,3.928 -7.007,3.928c-1.92,-0 -3.66,-0.434 -4.926,-1.137l3.921,-2.271l0,-0.366l-4.228,2.451Z" style="fill:url(#_Linear7);"/><path d="M69.177,65.757c0.357,-1.98 3.345,-3.528 6.972,-3.528c3.627,-0 6.615,1.548 6.972,3.528c-0.357,1.981 -3.345,3.529 -6.972,3.529c-3.627,-0 -6.615,-1.548 -6.972,-3.529Z" style="fill:#99d2df;"/><path d="M74.425,64.758l3.448,0c-0,0 -0.018,-0.532 -0,0.693c0.007,0.487 -0.773,0.956 -1.724,0.956c-0.952,-0 -1.712,-0.464 -1.724,-0.956l-0,-0.693Z" style="fill:url(#_Linear8);"/><ellipse cx="76.157" cy="64.758" rx="1.716" ry="0.962" style="fill:#fff;"/><ellipse cx="76.157" cy="64.758" rx="1.402" ry="0.785" style="fill:#999;"/><path d="M74.531,65.066l-4.306,2.486l0.62,0.451l4.306,-2.486l-0.62,-0.451Z" style="fill:#fff;"/><path d="M70.916,67.963l0.279,0.172l0.028,0.014l3.921,-2.271l0,-0.366l-4.228,2.451Z" style="fill:#b5b5b5;"/></g></g><defs><linearGradient id="_Linear1" x1="0" y1="0" x2="1" y2="0" gradientUnits="userSpaceOnUse" gradientTransform="matrix(12.4254,0,0,6.7069,59.3249,12.7648)"><stop offset="0" style="stop-color:#dddada;stop-opacity:1"/><stop offset="0.1" style="stop-color:#b0b0b0;stop-opacity:1"/><stop offset="0.55" style="stop-color:#fff;stop-opacity:1"/><stop offset="1" style="stop-color:#d9d8d5;stop-opacity:1"/></linearGradient><linearGradient id="_Linear2" x1="0" y1="0" x2="1" y2="0" gradientUnits="userSpaceOnUse" gradientTransform="matrix(12.4254,0,0,6.7069,48.0141,20.3236)"><stop offset="0" style="stop-color:#dddada;stop-opacity:1"/><stop offset="0.1" style="stop-color:#b0b0b0;stop-opacity:1"/><stop offset="0.55" style="stop-color:#fff;stop-opacity:1"/><stop offset="1" style="stop-color:#d9d8d5;stop-opacity:1"/></linearGradient><linearGradient id="_Linear3" x1="0" y1="0" x2="1" y2="0" gradientUnits="userSpaceOnUse" gradientTransform="matrix(16.5323,0,0,8.92369,80.22,61.7692)"><stop offset="0" style="stop-color:#dddada;stop-opacity:1"/><stop offset="0.1" style="stop-color:#b0b0b0;stop-opacity:1"/><stop offset="0.55" style="stop-color:#fff;stop-opacity:1"/><stop offset="1" style="stop-color:#d9d8d5;stop-opacity:1"/></linearGradient><linearGradient id="_Linear4" x1="0" y1="0" x2="1" y2="0" gradientUnits="userSpaceOnUse" gradientTransform="matrix(14.0824,0,0,6.70449,81.4508,56.7323)"><stop offset="0" style="stop-color:#dddada;stop-opacity:1"/><stop offset="0.1" style="stop-color:#b0b0b0;stop-opacity:1"/><stop offset="0.55" style="stop-color:#fff;stop-opacity:1"/><stop offset="1" style="stop-color:#d9d8d5;stop-opacity:1"/></linearGradient><linearGradient id="_Linear5" x1="0" y1="0" x2="1" y2="0" gradientUnits="userSpaceOnUse" gradientTransform="matrix(3.44785,0,0,1.86106,86.8017,57.6379)"><stop offset="0" style="stop-color:#dddada;stop-opacity:1"/><stop offset="0.1" style="stop-color:#b0b0b0;stop-opacity:1"/><stop offset="0.55" style="stop-color:#fff;stop-opacity:1"/><stop offset="1" style="stop-color:#d9d8d5;stop-opacity:1"/></linearGradient><linearGradient id="_Linear6" x1="0" y1="0" x2="1" y2="0" gradientUnits="userSpaceOnUse" gradientTransform="matrix(16.5323,0,0,8.92369,67.8433,69.8201)"><stop offset="0" style="stop-color:#dddada;stop-opacity:1"/><stop offset="0.1" style="stop-color:#b0b0b0;stop-opacity:1"/><stop offset="0.55" style="stop-color:#fff;stop-opacity:1"/><stop offset="1" style="stop-color:#d9d8d5;stop-opacity:1"/></linearGradient><linearGradient id="_Linear7" x1="0" y1="0" x2="1" y2="0" gradientUnits="userSpaceOnUse" gradientTransform="matrix(14.0824,0,0,6.70449,69.074,64.7832)"><stop offset="0" style="stop-color:#dddada;stop-opacity:1"/><stop offset="0.1" style="stop-color:#b0b0b0;stop-opacity:1"/><stop offset="0.55" style="stop-color:#fff;stop-opacity:1"/><stop offset="1" style="stop-color:#d9d8d5;stop-opacity:1"/></linearGradient><linearGradient id="_Linear8" x1="0" y1="0" x2="1" y2="0" gradientUnits="userSpaceOnUse" gradientTransform="matrix(3.44785,0,0,1.86106,74.425,65.6888)"><stop offset="0" style="stop-color:#dddada;stop-opacity:1"/><stop offset="0.1" style="stop-color:#b0b0b0;stop-opacity:1"/><stop offset="0.55" style="stop-color:#fff;stop-opacity:1"/><stop offset="1" style="stop-color:#d9d8d5;stop-opacity:1"/></linearGradient></defs></svg>