<?xml version="1.0" encoding="utf-8"?>
<!-- Generator: Adobe Illustrator 16.0.4, SVG Export Plug-In . SVG Version: 6.00 Build 0)  -->
<!DOCTYPE svg PUBLIC "-//W3C//DTD SVG 1.1//EN" "http://www.w3.org/Graphics/SVG/1.1/DTD/svg11.dtd">
<svg version="1.1" id="Layer_1" xmlns="http://www.w3.org/2000/svg" xmlns:xlink="http://www.w3.org/1999/xlink" x="0px" y="0px"
	 width="155.025px" height="47.022px" viewBox="0 0 155.025 47.022" enable-background="new 0 0 155.025 47.022"
	 xml:space="preserve">
<rect x="-78.013" y="-55.877" display="none" fill="#B61917" width="324" height="138"/>
<g>
	<polygon fill="#FFFFFF" points="135.589,14.785 135.589,16.87 137.631,16.87 137.631,14.785 135.589,14.785 	"/>
	<polygon fill="#FFFFFF" points="141.163,14.785 141.163,16.87 143.204,16.87 143.204,14.785 141.163,14.785 	"/>
	<path fill="#FFFFFF" d="M109.806,28.825l-2.639-5.149l0,0c1.149-0.382,2.128-1.445,2.128-3.105c0-1.958-1.405-3.617-3.829-3.617
		l0,0h-0.383v2.043h0.255l0,0c0.979,0,1.659,0.679,1.659,1.574l0,0l0,0c0,0.936-0.68,1.574-1.659,1.574l0,0h-0.255v2.51l2.042,4.169
		H109.806L109.806,28.825L109.806,28.825z M105.083,16.955h-4.255v11.871h2.298V24.06h1.659l0.297,0.596v-2.51h-1.957v-3.148h1.957
		V16.955z"/>
	<path fill="#FFFFFF" d="M144.607,28.825l-4.339-11.871h-0.851v3.574v-0.085l1.445,4.298l0,0h-1.445v1.957h2.084l0.681,2.127
		H144.607L144.607,28.825L144.607,28.825z M139.418,16.955h-0.936l-4.34,11.871h2.424l0.725-2.127h2.127v-1.957h-1.489l1.489-4.212
		V16.955z"/>
	<path fill="#FFFFFF" d="M61.175,24.741v-7.786h-2.297v7.701l0,0c0,1.361-0.851,2.17-2.084,2.17c-1.234,0-2.042-0.809-2.042-2.17
		l0,0v-7.701h-2.298v7.786l0,0c0,2.51,1.915,4.17,4.34,4.17S61.175,27.25,61.175,24.741L61.175,24.741L61.175,24.741z"/>
	<polygon fill="#FFFFFF" points="72.961,28.825 72.961,16.955 70.621,16.955 70.621,24.188 65.94,16.955 63.856,16.955 
		63.856,28.825 66.196,28.825 66.196,21.507 70.876,28.825 72.961,28.825 	"/>
	<polygon fill="#FFFFFF" points="78.066,28.825 78.066,16.955 75.727,16.955 75.727,28.825 78.066,28.825 	"/>
	<polygon fill="#FFFFFF" points="89.171,16.955 86.746,16.955 84.363,24.656 81.98,16.955 79.599,16.955 83.512,28.825 
		85.215,28.825 89.171,16.955 	"/>
	<polygon fill="#FFFFFF" points="98.488,28.783 98.488,26.741 93,26.741 93,23.848 97.681,23.848 97.681,21.805 93,21.805 
		93,18.998 98.488,18.998 98.488,16.955 90.702,16.955 90.702,28.783 98.488,28.783 	"/>
	<path fill="#FFFFFF" d="M119.463,25.294c0-1.021-0.297-1.915-0.935-2.509c-0.468-0.469-1.148-0.766-2.255-0.895l0,0l-1.404-0.212
		l0,0c-0.468-0.085-0.852-0.256-1.106-0.468c-0.212-0.213-0.34-0.554-0.34-0.851c0-0.809,0.595-1.489,1.829-1.489
		c0.81,0,1.703,0.085,2.426,0.808l0,0l1.489-1.445l0,0c-1.021-0.979-2.212-1.404-3.83-1.404c-2.554,0-4.127,1.489-4.127,3.616
		c0,0.979,0.255,1.745,0.851,2.342c0.511,0.51,1.276,0.807,2.298,0.979l0,0l1.404,0.212l0,0c0.552,0.085,0.851,0.17,1.062,0.383
		c0.256,0.255,0.383,0.595,0.383,1.021c0,0.936-0.766,1.447-2.127,1.447c-1.064,0-2.085-0.256-2.851-0.979l0,0l-1.488,1.489l0,0
		c1.148,1.191,2.51,1.575,4.339,1.575C117.549,28.911,119.463,27.591,119.463,25.294L119.463,25.294L119.463,25.294z"/>
	<polygon fill="#FFFFFF" points="124.016,28.825 124.016,16.955 121.719,16.955 121.719,28.825 124.016,28.825 	"/>
	<polygon fill="#FFFFFF" points="134.525,18.998 134.525,16.955 126.016,16.955 126.016,18.998 129.121,18.998 129.121,28.783 
		131.419,28.783 131.419,18.998 134.525,18.998 	"/>
	<polygon fill="#FFFFFF" points="152.777,18.998 152.777,16.955 144.268,16.955 144.268,18.998 147.375,18.998 147.375,28.825 
		149.671,28.825 149.671,18.998 152.777,18.998 	"/>
	<path fill="#FFFFFF" d="M61.048,38.611c0-1.788,0.17-3.403-1.192-4.723c-0.766-0.809-1.83-1.149-3.063-1.149v2.127
		c0.638,0.042,1.106,0.255,1.447,0.681c0.425,0.511,0.51,1.276,0.51,3.063l0,0l0,0c0,1.83-0.085,2.681-0.51,3.191
		c-0.34,0.426-0.809,0.68-1.447,0.723v2.084c1.233,0,2.297-0.34,3.063-1.149C61.218,42.142,61.048,40.398,61.048,38.611
		L61.048,38.611L61.048,38.611L61.048,38.611z M56.793,32.739c0,0,0,0-0.042,0l0,0h-4.297v11.87h4.297l0,0c0.042,0,0.042,0,0.042,0
		v-2.084c-0.085,0-0.17,0-0.255,0l0,0h-1.745v-7.7h1.745l0,0c0.084,0,0.169,0,0.255,0.042V32.739z"/>
	<path fill="#FFFFFF" d="M72.493,44.609l-2.638-5.105l0,0c1.148-0.426,2.17-1.447,2.17-3.106c0-1.999-1.447-3.659-3.872-3.659l0,0
		h-0.383v2.085h0.255l0,0c1.021,0,1.659,0.638,1.659,1.574l0,0l0,0c0,0.894-0.638,1.531-1.659,1.531l0,0h-0.255v2.468l2.042,4.211
		H72.493L72.493,44.609L72.493,44.609z M67.771,32.739h-4.255v11.87h2.298v-4.722h1.702l0.255,0.511V37.93h-1.958v-3.105h1.958
		V32.739z"/>
	<polygon fill="#FFFFFF" points="82.321,44.609 82.321,42.525 76.79,42.525 76.79,39.674 81.47,39.674 81.47,37.589 76.79,37.589 
		76.79,34.825 82.321,34.825 82.321,32.739 74.493,32.739 74.493,44.609 82.321,44.609 	"/>
	<path fill="#FFFFFF" d="M92.319,41.121c0-1.064-0.298-1.915-0.936-2.51c-0.511-0.469-1.191-0.766-2.256-0.937l0,0l-1.404-0.212l0,0
		c-0.468-0.042-0.851-0.255-1.105-0.468c-0.256-0.213-0.341-0.553-0.341-0.851c0-0.808,0.595-1.489,1.83-1.489
		c0.766,0,1.702,0.128,2.425,0.809l0,0l1.489-1.447l0,0c-1.021-0.979-2.212-1.361-3.829-1.361c-2.595,0-4.127,1.489-4.127,3.574
		c0,1.021,0.256,1.786,0.809,2.339c0.554,0.511,1.32,0.852,2.34,0.979l0,0l1.403,0.213l0,0c0.554,0.085,0.809,0.213,1.064,0.426
		c0.255,0.212,0.341,0.553,0.341,0.978c0,0.979-0.723,1.489-2.084,1.489c-1.106,0-2.128-0.256-2.851-1.021l0,0l-1.489,1.49l0,0
		c1.148,1.191,2.51,1.573,4.296,1.573C90.405,44.694,92.319,43.418,92.319,41.121L92.319,41.121L92.319,41.121z"/>
	<path fill="#FFFFFF" d="M103.168,38.611c0-1.788,0.128-3.403-1.191-4.723c-0.723-0.766-1.873-1.106-3.106-1.149v2.127
		c0.681,0.042,1.148,0.298,1.489,0.681c0.426,0.511,0.511,1.276,0.511,3.063l0,0l0,0c0,1.83-0.085,2.681-0.511,3.191
		c-0.34,0.426-0.808,0.68-1.489,0.723v2.084c1.233,0,2.383-0.34,3.106-1.149C103.297,42.142,103.168,40.398,103.168,38.611
		L103.168,38.611L103.168,38.611L103.168,38.611z M98.872,32.739c0,0,0,0-0.043,0l0,0h-4.254v11.87h4.254l0,0
		c0.043,0,0.043,0,0.043,0v-2.084c-0.085,0-0.17,0-0.256,0l0,0h-1.744v-7.7h1.744l0,0c0.085,0,0.171,0,0.256,0.042V32.739z"/>
	<polygon fill="#FFFFFF" points="113.422,44.609 113.422,42.525 107.934,42.525 107.934,39.674 112.614,39.674 112.614,37.589 
		107.934,37.589 107.934,34.825 113.422,34.825 113.422,32.739 105.636,32.739 105.636,44.609 113.422,44.609 	"/>
	<polygon fill="#FFFFFF" points="124.868,44.609 124.868,32.739 122.527,32.739 122.527,40.015 117.847,32.739 115.763,32.739 
		115.763,44.609 118.102,44.609 118.102,37.334 122.782,44.609 124.868,44.609 	"/>
	<polygon fill="#FFFFFF" points="60.963,3.169 60.963,1.127 52.454,1.127 52.454,3.169 55.56,3.169 55.56,12.955 57.857,12.955 
		57.857,3.169 60.963,3.169 	"/>
	<polygon fill="#FFFFFF" points="70.918,12.955 70.918,10.914 65.388,10.914 65.388,8.02 70.067,8.02 70.067,5.978 65.388,5.978 
		65.388,3.169 70.918,3.169 70.918,1.127 63.09,1.127 63.09,12.955 70.918,12.955 	"/>
	<path fill="#FFFFFF" d="M81.683,9.339h-2.34l0,0c-0.255,0.937-0.851,1.66-2,1.66c-0.638,0-1.149-0.213-1.489-0.596
		c-0.468-0.51-0.595-1.063-0.595-3.361c0-2.298,0.127-2.851,0.595-3.361c0.34-0.383,0.852-0.596,1.489-0.596
		c1.149,0,1.745,0.723,2,1.659l0,0h2.34l0,0C81.258,2.277,79.513,1,77.301,1c-1.276,0-2.34,0.468-3.19,1.319
		C72.918,3.511,72.961,5,72.961,7.042s-0.042,3.532,1.149,4.723c0.85,0.851,1.914,1.32,3.19,1.32
		C79.513,13.084,81.258,11.807,81.683,9.339L81.683,9.339L81.683,9.339z"/>
	<polygon fill="#FFFFFF" points="92.489,12.955 92.489,1.127 90.192,1.127 90.192,5.978 86.151,5.978 86.151,1.127 83.853,1.127 
		83.853,12.955 86.151,12.955 86.151,8.02 90.192,8.02 90.192,12.955 92.489,12.955 	"/>
	<polygon fill="#FFFFFF" points="104.53,12.955 104.53,1.127 102.232,1.127 102.232,8.36 97.51,1.127 95.468,1.127 95.468,12.955 
		97.766,12.955 97.766,5.68 102.488,12.955 104.53,12.955 	"/>
	<polygon fill="#FFFFFF" points="109.806,12.955 109.806,1.127 107.508,1.127 107.508,12.955 109.806,12.955 	"/>
	<path fill="#FFFFFF" d="M120.442,9.467c0-1.021-0.297-1.915-0.936-2.51c-0.469-0.468-1.148-0.765-2.255-0.894l0,0l-1.404-0.212l0,0
		c-0.468-0.084-0.851-0.256-1.106-0.468c-0.213-0.255-0.34-0.553-0.34-0.851c0-0.808,0.595-1.489,1.829-1.489
		c0.81,0,1.703,0.085,2.426,0.808l0,0l1.49-1.447l0,0C119.124,1.426,117.933,1,116.315,1c-2.553,0-4.127,1.489-4.127,3.616
		c0,0.978,0.255,1.745,0.852,2.34c0.51,0.511,1.276,0.808,2.297,0.979l0,0l1.405,0.212l0,0c0.552,0.085,0.851,0.17,1.062,0.383
		c0.256,0.255,0.383,0.596,0.383,1.021c0,0.936-0.766,1.446-2.126,1.446c-1.064,0-2.085-0.256-2.851-0.979l0,0l-1.489,1.489l0,0
		c1.147,1.191,2.51,1.575,4.34,1.575C118.528,13.084,120.442,11.764,120.442,9.467L120.442,9.467L120.442,9.467z"/>
	<path fill="#FFFFFF" d="M131.164,9.339h-2.34l0,0c-0.213,0.937-0.851,1.66-2,1.66c-0.639,0-1.15-0.213-1.49-0.596
		c-0.425-0.51-0.553-1.063-0.553-3.361c0-2.298,0.128-2.851,0.553-3.361c0.34-0.383,0.851-0.596,1.49-0.596
		c1.149,0,1.787,0.723,2,1.659l0,0h2.34l0,0C130.739,2.277,129.036,1,126.825,1c-1.319,0-2.383,0.468-3.233,1.319
		c-1.192,1.192-1.149,2.681-1.149,4.723s-0.042,3.532,1.149,4.723c0.85,0.851,1.914,1.32,3.233,1.32
		C128.994,13.084,130.739,11.807,131.164,9.339L131.164,9.339L131.164,9.339z"/>
	<polygon fill="#FFFFFF" points="141.972,12.955 141.972,1.127 139.673,1.127 139.673,5.978 135.674,5.978 135.674,1.127 
		133.334,1.127 133.334,12.955 135.674,12.955 135.674,8.02 139.673,8.02 139.673,12.955 141.972,12.955 	"/>
	<polygon fill="#FFFFFF" points="152.82,12.955 152.82,10.914 147.289,10.914 147.289,8.02 151.97,8.02 151.97,5.978 147.289,5.978 
		147.289,3.169 152.82,3.169 152.82,1.127 144.991,1.127 144.991,12.955 152.82,12.955 	"/>
	<g>
		<path fill="#FFFFFF" d="M23.82,44.609h8.594L45.562,31.42V14.316L32.415,1.127H23.82v1.319h8.041l12.381,12.38V30.91
			L31.861,43.291H23.82V44.609z M2.079,14.316V31.42l13.189,13.189h8.552v-1.319h-8.041L3.398,30.91V14.827l0,0l12.381-12.38h8.041
			V1.127h-8.552L2.079,14.316L2.079,14.316L2.079,14.316z"/>
		<path fill="#FFFFFF" d="M42.923,16.955L42.923,16.955v-1.616L31.351,3.765h-7.489v1.319h6.978l10.551,10.551l0,0l0,0H28.458
			v13.828h-4.596v1.319h5.914V16.955H42.923L42.923,16.955L42.923,16.955z M23.862,3.765H16.29L4.717,15.338v1.616h13.189v13.828
			h5.956v-1.319h-4.637V15.636H6.292L16.843,5.084h7.019V3.765z"/>
		<path fill="#FFFFFF" d="M23.862,32.101h7.233V18.273h11.828v12.126L31.351,41.971h-7.489v-1.318h6.978l10.765-10.764l0.042-10.297
			l0,0l0,0h-9.232V33.42h-8.552V32.101z M4.717,18.273h11.87v13.828h7.275v1.319h-8.594V19.592H6.036v10.297l10.807,10.764h7.019
			v1.318H16.29L4.717,30.399V18.273L4.717,18.273L4.717,18.273z"/>
	</g>
</g>
</svg>
