<?xml version="1.0" encoding="UTF-8" standalone="no"?>
<svg
   xmlns:dc="http://purl.org/dc/elements/1.1/"
   xmlns:cc="http://creativecommons.org/ns#"
   xmlns:rdf="http://www.w3.org/1999/02/22-rdf-syntax-ns#"
   xmlns:svg="http://www.w3.org/2000/svg"
   xmlns="http://www.w3.org/2000/svg"
   xmls="http://www.w3.org/2000/svg"
   id="svg2"
   version="1.1"
   width="153.21899"
   height="83.666">
  <metadata
     id="metadata16">
    <rdf:RDF>
      <cc:Work
         rdf:about="">
        <dc:format>image/svg+xml</dc:format>
        <dc:type
           rdf:resource="http://purl.org/dc/dcmitype/StillImage" />
        <dc:title>logo-en</dc:title>
      </cc:Work>
    </rdf:RDF>
  </metadata>
  <defs
     id="defs14" />
  <title
     id="title4">logo-en</title>
  <path
     d="m 40.279,28.754 4.855,0 0,27.504 -4.856,0 z"
     id="path6"
     style="fill:#ec1c24;fill-rule:nonzero" />
  <path
     d="m 40.279,56.258 4.855,0 0,27.408 -4.856,0 z"
     id="path8"
     style="fill:#f1ce04;fill-rule:nonzero" />
  <path
     id="path10"
     d="M 40.279297 1.4433594 L 40.277344 28.849609 L 45.134766 28.849609 L 45.134766 1.4433594 L 40.279297 1.4433594 z "
     style="fill-rule:nonzero;stroke:none;stroke-opacity:1" />
  <path
     d="m 25.133,6.08 c 0,-1.562 -1.135,-2.798 -1.535,-3.148 L 23.31,2.998 c 0.425,0.52 1.174,1.388 1.174,2.54 0,2.263 -2.393,4.232 -5.126,4.268 0.022,0.233 0.02,0.438 0.02,0.614 0,0.325 -0.02,0.64 -0.06,0.95 3.1,-0.057 5.814,-2.577 5.814,-5.29 z M 20.86,24.83 c -1.324,0 -1.61,-0.14 -1.96,-0.14 -0.225,0 -0.437,0.02 -0.437,0.338 0,0.222 0.248,0.542 0.47,0.71 0.313,-0.31 0.74,-0.374 1.43,-0.374 0.323,0 0.763,0.06 0.956,0.087 -0.026,0.192 -0.066,0.437 -0.066,0.784 0,0.183 0.007,0.396 0.007,0.62 0,0.782 -0.114,1.195 -0.386,1.51 0.057,0.035 0.214,0.068 0.308,0.068 0.506,0 0.636,-0.26 0.636,-1.575 0,-0.397 0.032,-0.764 0.032,-0.86 0.708,0.54 1.43,1.504 1.43,2.202 0.23,-0.12 0.503,-0.47 0.503,-0.73 0,-0.476 -0.794,-1.183 -1.636,-2.036 0.117,-0.028 0.43,-0.118 0.687,-0.118 0.66,0 1.196,0.11 1.507,0.476 0.123,-0.134 0.225,-0.537 0.225,-0.764 0,-0.396 -0.228,-0.383 -0.392,-0.383 -0.705,0 -1.573,0.11 -2.197,0.214 -0.226,-0.302 -1.67,-2.253 -2.043,-3.294 -0.107,-0.037 -0.19,-0.07 -0.37,-0.07 -0.346,0 -0.436,0.244 -0.525,0.575 0.795,0.965 1.56,2.015 1.82,2.76 z m -7.9,-2.76 c -0.09,-0.332 -0.177,-0.575 -0.525,-0.575 -0.178,0 -0.262,0.033 -0.367,0.07 -0.377,1.04 -1.817,2.992 -2.045,3.294 -0.62,-0.103 -1.494,-0.213 -2.197,-0.213 -0.164,0 -0.39,-0.012 -0.39,0.384 0,0.227 0.1,0.63 0.224,0.764 0.31,-0.367 0.847,-0.476 1.508,-0.476 0.257,0 0.568,0.09 0.685,0.117 -0.842,0.852 -1.635,1.56 -1.635,2.034 0,0.262 0.273,0.612 0.504,0.73 0,-0.697 0.722,-1.66 1.428,-2.2 0,0.095 0.034,0.462 0.034,0.86 0,1.315 0.13,1.574 0.636,1.574 0.092,0 0.25,-0.033 0.31,-0.07 -0.273,-0.313 -0.388,-0.726 -0.388,-1.508 0,-0.224 0.008,-0.437 0.008,-0.62 0,-0.346 -0.04,-0.59 -0.067,-0.783 0.193,-0.026 0.635,-0.087 0.957,-0.087 0.69,0 1.117,0.065 1.43,0.375 0.222,-0.17 0.47,-0.49 0.47,-0.71 0,-0.318 -0.213,-0.34 -0.438,-0.34 -0.35,0 -0.635,0.14 -1.96,0.14 0.26,-0.745 1.025,-1.795 1.82,-2.76 z M 7.518,5.536 c 0,-1.15 0.75,-2.02 1.173,-2.54 L 8.405,2.934 C 8.003,3.284 6.8690001,4.52 6.8690001,6.081 c 0,2.732 2.7499999,5.27 5.8799999,5.292 -0.033,-0.298 -0.052,-0.613 -0.052,-0.95 0,-0.21 0.008,-0.418 0.026,-0.612 -2.764,0 -5.206,-1.986 -5.206,-4.272 z m 8.407,-2.105 c 0.14,-0.328 0.332,-0.718 0.332,-1.145 0,-1.187 -0.983,-1.75 -2.298,-1.75 -0.676,0 -1.017,0.218 -1.017,0.437 0,0.22 0.223,0.7 0.308,0.85 0.244,-0.11 0.684,-0.237 0.938,-0.237 0.903,0 1.577,1.012 1.736,1.845 z m 0.644,-1.517 c 0.769999,0.152 1.293999,-0.83 0.562999,-1.006 0.102,0.324 -0.39,0.552 -0.39,0.552 0,0 -0.187999,-0.433 0.055,-0.68 C 16.35,0.56 16.237,0.826 16.227,1.1 c 0.176,0.237 0.292,0.513 0.342,0.815 z m 2.49,6.734 c 0.123,0.008 0.24,0.015 0.363,0.015 2.165,0 4.313,-1.4 4.313,-3.195 0,-0.957 -0.43,-1.627 -0.962,-2.368 -0.31,0.053 -0.596,0.082 -0.82,0.082 -0.98,0 -1.513,-0.527 -1.55,-1.044 0,-0.464 0.377,-0.815 0.964,-0.815 0.91,0 2.57,0.853 4.244,0.853 -0.166,0.124 -0.44,0.255 -0.77,0.378 0.98,0.885 1.636,2.068 1.887,3.333 l 2.564,4.103 c 0.43,0.685 1.34,2.03 2.71,3.083 -1.657,0 -2.758,0.037 -4.16,-2.18 L 26.529,8.791 c -0.096,0.27 -0.218,0.536 -0.358,0.796 l 2.614,4.184 c 0.435,0.69 1.334,2.028 2.713,3.084 -1.66,0 -2.757,0.04 -4.16,-2.178 l -2.25,-3.602 c -0.168,0.178 -0.345,0.354 -0.532,0.522 l 3.174,5.08 c 0.438,0.695 1.335,2.024 2.714,3.084 -1.658,0 -2.757,0.038 -4.16,-2.18 l -3.095,-4.952 c -0.204,0.13 -0.412,0.252 -0.626,0.372 l 3.775,6.043 c 0.436,0.694 1.33,2.026 2.712,3.084 -1.657,0 -2.76,0.04 -4.158,-2.18 l -3.89,-6.224 c -0.23,0.09 -0.465,0.172 -0.7,0.25 l 4.394,7.035 c 0.428,0.68 1.346,2.032 2.71,3.08 -1.656,0 -2.758,0.04 -4.158,-2.18 l -4.684,-7.496 -0.142,0.025 c -0.128,0.406 -0.216,0.784 -0.216,1.162 0,2.354 1.546,4.435 3.402,6.04 -0.12,0.05 -0.327,0.07 -0.518,0.07 -0.38,0 -0.63,-0.02 -0.805,-0.052 0.43,0.98 1.355,2.24 1.82,2.893 0.608,-0.108 1.49,-0.196 2.07,-0.196 0.605,0 0.67,0.355 0.67,0.672 0,0.55 -0.255,0.99 -0.552,1.234 -0.113,-0.283 -0.34,-0.66 -1.457,-0.66 l -0.113,0.005 c 0.33,0.366 1.35,1.193 1.35,1.86 0,0.44 -0.482,1.102 -1.12,1.102 0.04,-0.14 0.032,-0.273 0.032,-0.37 0,-0.54 -0.48,-1.172 -0.882,-1.612 0.01,0.132 0.005,0.117 0.005,0.27 0,1.276 -0.115,1.862 -0.925,1.862 -0.397,0 -0.673,-0.217 -0.766,-0.282 0.525,-0.486 0.554,-0.867 0.554,-1.583 l -0.006,-0.62 c 0,-0.162 0.002,-0.377 0.028,-0.535 -0.29,-0.04 -0.406,-0.04 -0.63,-0.04 0,0 -1.152,-0.09 -1.43,0.508 -0.31,-0.285 -0.763,-0.688 -0.763,-1.14 0,-0.292 0.138,-0.627 0.73,-0.627 0.225,0 0.932,0.14 1.523,0.14 -0.158,-0.354 -0.866,-1.387 -1.476,-2.14 -0.095,0.29 -0.24,0.61 -0.56,0.864 -0.045,-0.482 -0.327,-2.006 -1.082001,-2.895 -0.086,0.6 -0.205,1.22 -0.205,2.52 0,3.17 0.76,5.513 2.380001,5.96 -0.21,0.37 -0.655,0.698 -1.117,0.698 -0.592001,0 -0.915001,-0.67 -1.244001,-1.303 -0.17,0.47 -0.642999,1.61 -1.117999,1.61 -0.475,0 -0.947,-1.14 -1.12,-1.61 -0.328,0.633 -0.65,1.303 -1.243,1.303 -0.462,0 -0.907,-0.33 -1.117,-0.697 1.617,-0.448 2.382,-2.79 2.382,-5.96 0,-1.302 -0.12,-1.92 -0.208,-2.52 -0.753,0.888 -1.036,2.412 -1.08,2.894 -0.32,-0.255 -0.466,-0.573 -0.56,-0.863 -0.61,0.752 -1.318,1.785 -1.477,2.14 0.592,0 1.298,-0.14 1.523,-0.14 0.592,0 0.732,0.334 0.732,0.627 0,0.45 -0.455,0.854 -0.765,1.14 -0.278,-0.6 -1.43,-0.508 -1.43,-0.508 -0.223,0 -0.338,-0.002 -0.628,0.04 0.023,0.157 0.03,0.372 0.024,0.535 l -0.003,0.62 c 0,0.716 0.026,1.097 0.553,1.583 -0.094,0.065 -0.368,0.282 -0.766,0.282 -0.81,0 -0.926,-0.586 -0.926,-1.862 0,-0.153 -0.006,-0.138 0.007,-0.27 -0.406,0.44 -0.88,1.072 -0.88,1.612 0,0.097 -0.008,0.23 0.03,0.37 -0.637,0 -1.12,-0.66 -1.12,-1.1 0,-0.67 1.023,-1.496 1.35,-1.862 L 9.166,25.603 c -1.12,0 -1.346,0.375 -1.457,0.658 -0.3,-0.243 -0.556,-0.685 -0.556,-1.234 0,-0.317 0.067,-0.672 0.67,-0.672 0.58,0 1.464,0.088 2.072,0.196 0.465,-0.653 1.387,-1.914 1.818,-2.893 -0.172,0.03 -0.42,0.053 -0.803,0.053 -0.19,0 -0.398,-0.02 -0.516,-0.07 1.856,-1.606 3.4,-3.687 3.4,-6.04 0,-0.38 -0.087,-0.757 -0.214,-1.163 l -0.142,-0.026 -4.685,7.496 c -1.4,2.22 -2.5019999,2.18 -4.16,2.18 1.3650001,-1.05 2.2830001,-2.4 2.71,-3.08 L 11.7,13.971 c -0.237,-0.078 -0.47,-0.16 -0.702,-0.25 L 7.11,19.945 c -1.3999999,2.22 -2.503,2.18 -4.16,2.18 1.38,-1.058 2.276,-2.39 2.7120001,-3.083 L 9.438,13 C 9.223,12.88 9.014,12.757 8.81,12.628 l -3.0939999,4.95 C 4.313,19.798 3.216,19.76 1.556,19.76 2.936,18.7 3.833,17.37 4.269,16.676 l 3.173,-5.08 C 7.256,11.428 7.078,11.252 6.9120001,11.074 L 4.662,14.676 C 3.259,16.896 2.16,16.856 0.505,16.856 1.882,15.8 2.782,14.462 3.218,13.772 L 5.8280001,9.588 c -0.138,-0.26 -0.257,-0.525 -0.356,-0.796 L 4.158,10.894 C 2.756,13.111 1.658,13.074 0,13.074 1.372,12.02 2.28,10.674 2.712,9.99 L 5.275,5.887 C 5.5250001,4.622 6.1790001,3.439 7.159,2.555 6.8320001,2.433 6.5560001,2.302 6.3920001,2.178 8.065,2.178 9.722,1.328 10.634,1.328 c 0.59,0 0.964,0.35 0.964,0.813 -0.037,0.517 -0.57,1.043 -1.55,1.043 -0.225,0 -0.508,-0.03 -0.822,-0.083 -0.53,0.74 -0.96,1.41 -0.96,2.368 0,1.795 2.147,3.194 4.313,3.194 0.122,0 0.24,-0.008 0.362,-0.016 0.43,-1.453 1.34,-2.408 2.072,-3.34 -0.877,-0.32 -1.85,-1.15 -1.85,-1.525 0.11,-0.065 1.786,0.46 1.96,0.51 0.036,0.007 0.07,0.01 0.11,0 0.205,-0.063 0.376,-0.36 0.376,-0.393 -0.18,-0.03 -1.23,-0.166 -1.95,-0.426 -0.546,-0.2 -0.822,-0.56 -0.822,-0.7 0.174,-0.027 0.84,0.323 1.816,0.323 0.362,0 0.432,-0.015 0.79,-0.06 -0.252,-0.6 -0.726,-1.106 -1.257,-1.106 -0.216,0 -0.683,0.134 -1.076,0.328 -0.27,-0.422 -0.513,-0.98 -0.513,-1.285 0,-0.36 0.357,-0.78 1.36,-0.78 0.28,0 0.542,0.024 0.786,0.07 0.195,0.036 0.36,0.08 0.537,0.15 C 15.267,0.388 15.26,0.333 15.26,0.285 15.26,0.145 15.385,0 15.856,0 c 0.824999,0 1.669999,0.27 2.71,0.27 0.268,0 0.45,-0.008 0.606,-0.074 -0.068,0.207 -0.36,0.51 -0.627,0.758 0.164,0.227 0.593,0.77 0.593,1.65 0,1.41 -0.93,2.576 -0.93,4.004 0,0.848 0.654,1.595 0.848,2.04 z m 39.676,32.794 c 0.12,2.502 -0.83,2.98 -1.598,2.98 -0.843,0 -1.21,-0.677 -1.21,-1.43 0,-1.642 1.61,-1.534 2.808,-1.55 z m 0.03,3.852 1.38,0 c -0.09,-0.598 -0.152,-1.227 -0.152,-1.84 l 0,-3.73 c 0,-1.305 -0.524,-2.333 -2.52,-2.333 -1.64,0 -2.56,0.598 -2.622,2.332 l 1.367,0 c -0.08,-0.816 0.368,-1.382 1.21,-1.382 1.352,0 1.337,1.12 1.307,2.15 -1.765,-0.048 -4.07,0.06 -4.07,2.408 0,1.49 0.478,2.55 2.12,2.55 0.967,0 1.566,-0.385 1.95,-1.276 l 0.03,0 0,1.12 z m 9.146,0 0,-5.37 c 0,-1.537 -0.414,-2.533 -2.07,-2.533 -0.997,0 -1.58,0.276 -2.073,1.15 l -0.06,0 0,-0.996 -1.336,0 c 0.045,0.538 0.075,1.072 0.075,1.612 l 0,6.138 1.26,0 0,-4.59 c 0,-1.06 0.2,-2.285 1.58,-2.285 1.075,0 1.367,0.675 1.367,1.504 l 0,5.37 1.256,0 z m 6.31,-4.19 c 0,1.564 0,3.317 -1.413,3.317 -1.58,0 -1.58,-1.69 -1.58,-2.856 0,-2.07 0.183,-3.145 1.534,-3.145 1.398,0 1.46,1.658 1.46,2.686 z m 0,-2.777 -0.046,0 c -0.43,-0.614 -0.968,-0.936 -1.704,-0.936 -2.503,0 -2.564,2.224 -2.564,4.16 0,3.406 1.26,3.898 2.5,3.898 0.817,0 1.352,-0.354 1.783,-1.076 l 0.03,0 0,0.92 1.26,0 0,-11.079 -1.26,0 0,4.113 z m 8.501,-2.887 2.133,0 c 1.09,0 1.488,0.892 1.488,1.69 0,0.967 -0.49,1.84 -1.503,1.84 l -2.118,0 z m 1.658,4.76 c 0.475,0 1.565,0.06 1.673,1.41 0.122,1.474 0.03,2.918 0.43,3.684 l 1.472,0 c -0.215,-0.69 -0.367,-2.424 -0.384,-2.9 -0.074,-2.225 -0.534,-2.656 -1.81,-2.856 l 0,-0.03 c 1.305,-0.23 2.025,-1.228 2.025,-2.532 0,-1.38 -0.687,-2.76 -2.653,-2.76 l -3.822,0 0,11.078 1.412,0 0,-5.094 1.658,0 z m 6.583,0.674 c 0.013,-2.147 0.674,-2.532 1.472,-2.532 0.923,0 1.55,0.274 1.55,2.533 l -3.022,0 z m 4.36,0.952 0,-0.66 c 0,-2.562 -0.555,-3.775 -2.765,-3.775 -2.685,0 -2.946,1.87 -2.946,4.143 0,3.423 1.306,3.915 2.946,3.915 1.628,0 2.684,-0.784 2.704,-2.5 l -1.382,0 c -0.048,0.78 -0.492,1.472 -1.35,1.472 -0.986,0 -1.567,-0.432 -1.567,-2.595 z m 7.074,1.258 c 0,-2.362 -3.87,-2.333 -3.87,-3.7 0,-0.673 0.524,-1.042 1.2,-1.042 0.798,0 1.227,0.43 1.213,1.242 l 1.395,0 c 0.107,-1.534 -1.073,-2.193 -2.454,-2.193 -2.18,0 -2.67,1.305 -2.67,2.117 0,2.318 3.866,2.35 3.866,3.73 0,0.8 -0.583,1.183 -1.336,1.183 -1.273,0 -1.29,-1.046 -1.29,-1.49 l -1.426,0 c -0.045,1.78 0.998,2.518 2.67,2.518 1.534,0 2.702,-0.66 2.702,-2.365 z m 3.05,-2.21 c 0.014,-2.147 0.675,-2.532 1.47499,-2.532 0.92,0 1.547,0.274 1.547,2.533 l -3.02199,0 z m 4.35999,0.952 0,-0.66 c 0,-2.562 -0.553,-3.775 -2.762,-3.775 -2.68699,0 -2.94599,1.87 -2.94599,4.143 0,3.423 1.303,3.915 2.94599,3.915 1.625,0 2.682,-0.784 2.7,-2.5 l -1.38,0 c -0.048,0.78 -0.492,1.472 -1.35,1.472 -0.98399,0 -1.56799,-0.432 -1.56799,-2.595 z m 6.048,-0.384 c 0.122,2.502 -0.83,2.98 -1.6,2.98 -0.842,0 -1.21,-0.677 -1.21,-1.43 0,-1.642 1.613,-1.534 2.81,-1.55 z m 0.03,3.852 1.382,0 c -0.094,-0.598 -0.155,-1.227 -0.155,-1.84 l 0,-3.73 c 0,-1.305 -0.522,-2.333 -2.516,-2.333 -1.642,0 -2.563,0.598 -2.625,2.332 l 1.368,0 c -0.078,-0.816 0.367,-1.382 1.21,-1.382 1.35,0 1.337,1.12 1.306,2.15 -1.765,-0.048 -4.07,0.06 -4.07,2.408 0,1.49 0.477,2.55 2.117,2.55 0.97,0 1.57,-0.385 1.952,-1.276 l 0.03,0 0,1.12 z m 4.987,-7.75 -1.258,0 0,7.75 1.257,0 0,-4.572 c 0,-1.045 0.354,-2.106 1.75,-2.106 0.23,0 0.448,0.05 0.678,0.08 l 0,-1.305 c -1.23,0 -1.877,0.137 -2.398,1.32 l -0.03,0 0,-1.167 z m 9.153,2.485 c 0.078,-1.733 -0.827,-2.638 -2.378,-2.638 -2.684,0 -2.948,1.87 -2.948,4.143 0,3.423 1.306,3.915 2.948,3.915 0.86,0 2.49,-0.554 2.44,-2.733 l -1.32,0 c 0.05,1.397 -0.83,1.705 -1.12,1.705 -1.305,0 -1.625,-0.906 -1.625,-3.425 0,-2.118 0.658,-2.577 1.625,-2.577 0.478,0 1.107,0.338 1.076,1.61 l 1.303,0 z m 7.785,5.265 0,-5.494 c 0,-1.75 -0.738,-2.41 -2.056,-2.41 -1.016,0 -1.6,0.246 -2.106,1.152 l -0.06,0 0,-4.328 -1.26,0 0,11.08 1.26,0 0,-4.56 c 0,-1.302 0.32,-2.315 1.58,-2.315 1.074,0 1.38,0.675 1.38,1.626 l 0,5.25 1.26,0 z M 57.302,27.977 c -1.306,0 -1.628,-0.906 -1.628,-3.425 0,-2.118 0.66,-2.577 1.627,-2.577 0.966,0 1.626,0.46 1.626,2.578 0,2.52 -0.323,3.425 -1.626,3.425 z m 0,1.028 c 1.64,0 2.946,-0.49 2.946,-3.915 0,-2.272 -0.26,-4.142 -2.946,-4.142 -2.688,0 -2.948,1.87 -2.948,4.142 0,3.424 1.303,3.916 2.947,3.916 z m 3.973,-7.905 0,0.95 1.198,0 0,6.8 1.258,0 0,-6.8 1.565,0 0,-0.95 -1.564,0 0,-1.32 c 0,-0.63 0.23,-1.198 1.565,-1.105 l 0,-0.904 c -0.182,-0.032 -0.336,-0.048 -0.596,-0.048 -1.12,0 -2.226,0.307 -2.226,1.875 l 0,1.503 -1.2,0 z m 14.574,7.75 0,-1.226 -4.388,0 0,-3.84 3.99,0 0,-1.227 -3.99,0 0,-3.563 4.298,0 0,-1.224 -5.71,0 0,11.08 z m 5.834,-4.189 c 0,1.563 0,3.316 -1.412,3.316 -1.58,0 -1.58,-1.69 -1.58,-2.856 0,-2.072 0.184,-3.146 1.535,-3.146 1.397,0 1.458,1.66 1.458,2.687 z m 0,-2.778 -0.045,0 c -0.43,-0.615 -0.967,-0.937 -1.704,-0.937 -2.503,0 -2.563,2.224 -2.563,4.16 0,3.406 1.256,3.898 2.5,3.898 0.813,0 1.352,-0.353 1.78,-1.075 l 0.03,0 0,0.92 1.26,0 0,-11.08 -1.26,0 0,4.115 z m 7.719,4.359 c 0,1.29 -0.843,1.795 -1.52,1.795 -0.89,0 -1.317,-0.63 -1.317,-1.565 l 0,-5.372 -1.26,0 0,5.91 c 0,1.32 0.738,1.995 2.088,1.995 0.813,0 1.55,-0.383 1.964,-1.09 l 0.045,0 0,0.936 1.34,0 c -0.05,-0.537 -0.08,-1.075 -0.08,-1.61 l 0,-6.14 -1.26,0 0,5.142 z m 8.889,-2.658 c 0.077,-1.733 -0.83,-2.637 -2.38,-2.637 -2.687,0 -2.946,1.87 -2.946,4.142 0,3.424 1.306,3.916 2.946,3.916 0.86,0 2.487,-0.553 2.442,-2.732 l -1.32,0 c 0.046,1.395 -0.83,1.705 -1.122,1.705 -1.306,0 -1.626,-0.906 -1.626,-3.425 0,-2.118 0.66,-2.577 1.626,-2.577 0.477,0 1.106,0.34 1.076,1.61 l 1.304,0 z m 6.279,1.414 c 0.12,2.502 -0.83,2.98 -1.597,2.98 -0.845,0 -1.213,-0.677 -1.213,-1.43 0,-1.642 1.61,-1.534 2.81,-1.55 z m 0.03,3.852 1.38,0 c -0.09,-0.598 -0.152,-1.227 -0.152,-1.84 l 0,-3.73 c 0,-1.305 -0.522,-2.333 -2.518,-2.333 -1.643,0 -2.562,0.597 -2.623,2.332 l 1.365,0 c -0.078,-0.815 0.368,-1.38 1.212,-1.38 1.35,0 1.334,1.12 1.305,2.148 -1.766,-0.047 -4.068,0.06 -4.068,2.41 0,1.488 0.477,2.548 2.117,2.548 0.97,0 1.565,-0.383 1.95,-1.275 l 0.03,0 0,1.12 z m 2.54799,-7.75 0,0.95 1.273,0 0,5.512 c 0,0.89 0.536,1.38 1.735,1.38 0.413,0 0.827,-0.092 1.242,-0.124 l 0,-0.965 c -0.275,0.03 -0.476,0.06 -0.567,0.06 -1.15,0 -1.15,-0.63 -1.15,-1.12 l 0,-4.743 1.69,0 0,-0.95 -1.69,0 0,-2.058 -1.26,0.565 0,1.49 -1.272,0 z m 6.624,0 -1.256,0 0,7.75 1.257,0 0,-7.75 z m -1.333,-1.98 1.413,0 0,-1.35 -1.413,0 z m 6.243,8.857 c -1.306,0 -1.626,-0.906 -1.626,-3.425 0,-2.118 0.66,-2.577 1.627,-2.577 0.968,0 1.628,0.46 1.628,2.578 0,2.52 -0.32,3.425 -1.628,3.425 z m 0,1.028 c 1.642,0 2.948,-0.49 2.948,-3.915 0,-2.272 -0.26,-4.142 -2.948,-4.142 -2.686,0 -2.946,1.87 -2.946,4.142 0,3.424 1.307,3.916 2.947,3.916 z m 10.407,-0.155 0,-5.37 c 0,-1.537 -0.414,-2.533 -2.07,-2.533 -1,0 -1.584,0.275 -2.073,1.15 l -0.06,0 0,-0.997 -1.337,0 c 0.046,0.538 0.078,1.072 0.078,1.612 l 0,6.138 1.26,0 0,-4.59 c 0,-1.06 0.197,-2.285 1.578,-2.285 1.076,0 1.368,0.676 1.368,1.505 l 0,5.37 1.258,0 z M 56.218,12.404 l 0,-5.062 3.867,0 0,-1.228 -3.867,0 0,-3.564 4.08,0 0,-1.224 -5.493,0 0,11.08 1.413,0 z m 6.595,-4.418 c 0.015,-2.147 0.676,-2.532 1.473,-2.532 0.922,0 1.552,0.274 1.552,2.532 l -3.024,0 z m 4.36,0.95 0,-0.658 c 0,-2.563 -0.554,-3.775 -2.765,-3.775 -2.684,0 -2.947,1.87 -2.947,4.14 0,3.424 1.305,3.916 2.947,3.916 1.628,0 2.686,-0.784 2.7,-2.5 l -1.38,0 c -0.045,0.78 -0.49,1.473 -1.35,1.473 -0.983,0 -1.565,-0.433 -1.565,-2.597 l 4.36,0 z m 6.184,-0.72 c 0,1.564 0,3.317 -1.412,3.317 -1.58,0 -1.58,-1.692 -1.58,-2.857 0,-2.072 0.182,-3.147 1.533,-3.147 1.397,0 1.46,1.66 1.46,2.686 z m 0,-2.777 -0.046,0 c -0.43,-0.614 -0.967,-0.936 -1.704,-0.936 -2.503,0 -2.563,2.223 -2.563,4.158 0,3.406 1.258,3.898 2.5,3.898 0.815,0 1.352,-0.353 1.78,-1.075 l 0.032,0 0,0.92 1.258,0 0,-11.077 -1.258,0 0,4.113 z m 4.804,2.547 c 0.016,-2.147 0.676,-2.532 1.473,-2.532 0.92,0 1.552,0.274 1.552,2.532 l -3.026,0 z m 4.36,0.95 0,-0.658 c 0,-2.563 -0.553,-3.775 -2.764,-3.775 -2.684,0 -2.947,1.87 -2.947,4.14 0,3.424 1.306,3.916 2.947,3.916 1.628,0 2.688,-0.784 2.7,-2.5 l -1.38,0 c -0.045,0.78 -0.49,1.473 -1.35,1.473 -0.982,0 -1.566,-0.433 -1.566,-2.597 l 4.36,0 z m 3.391,-4.28 -1.257,0 0,7.75 1.257,0 0,-4.572 c 0,-1.046 0.353,-2.106 1.75,-2.106 0.23,0 0.445,0.05 0.675,0.08 l 0,-1.306 c -1.226,0 -1.87,0.136 -2.392,1.318 l -0.033,0 z m 7.757,3.898 c 0.122,2.502 -0.827,2.98 -1.595,2.98 -0.848,0 -1.214,-0.677 -1.214,-1.43 0,-1.642 1.612,-1.534 2.808,-1.55 z m 0.032,3.85 1.38,0 c -0.093,-0.596 -0.154,-1.225 -0.154,-1.84 l 0,-3.73 c 0,-1.304 -0.522,-2.33 -2.516,-2.33 -1.64,0 -2.564,0.596 -2.625,2.33 l 1.368,0 c -0.075,-0.814 0.366,-1.38 1.212,-1.38 1.352,0 1.336,1.12 1.304,2.148 -1.765,-0.046 -4.066,0.06 -4.066,2.41 0,1.49 0.473,2.548 2.118,2.548 0.968,0 1.565,-0.383 1.948,-1.275 l 0.032,0 0,1.12 z m 3.654,-11.078 1.257,0 0,11.08 -1.257,0 z m 8.314,1.225 0.03,0 3.03999,9.854 1.336,0 3.1,-9.853 0.03,0 0,9.854 1.41,0 0,-11.079 -2.33,0 -2.825,9.3 -0.03,0 -2.79499,-9.3 -2.284,0 0,11.08 1.318,0 0,-9.857 z m 12.53199,2.105 -1.26,0 0,7.75 1.26,0 0,-7.752 z m -1.34,-1.98 1.416,0 0,-1.352 -1.415,0 0,1.35 z m 8.981,9.728 0,-5.37 c 0,-1.535 -0.415,-2.53 -2.074,-2.53 -0.998,0 -1.582,0.274 -2.07,1.15 l -0.063,0 0,-0.998 -1.336,0 c 0.048,0.537 0.078,1.072 0.078,1.612 l 0,6.137 1.258,0 0,-4.588 c 0,-1.06 0.198,-2.286 1.582,-2.286 1.073,0 1.365,0.676 1.365,1.505 l 0,5.37 1.26,0 z m 3.437,-7.748 -1.258,0 0,7.75 1.258,0 0,-7.752 z m -1.336,-1.98 1.414,0 0,-1.352 -1.414,0 0,1.35 z m 8.5,7.518 c 0,-2.36 -3.864,-2.33 -3.864,-3.697 0,-0.675 0.522,-1.043 1.196,-1.043 0.798,0 1.227,0.43 1.213,1.24 l 1.395,0 c 0.11,-1.532 -1.074,-2.19 -2.456,-2.19 -2.177,0 -2.67,1.303 -2.67,2.116 0,2.317 3.868,2.35 3.868,3.73 0,0.8 -0.58,1.183 -1.336,1.183 -1.272,0 -1.29,-1.047 -1.29,-1.49 l -1.425,0 c -0.05,1.78 0.996,2.516 2.67,2.516 1.535,0 2.698,-0.662 2.698,-2.365 z m 0.688,-5.538 0,0.95 1.275,0 0,5.51 c 0,0.89 0.54,1.383 1.736,1.383 0.413,0 0.83,-0.094 1.244,-0.125 l 0,-0.965 c -0.278,0.03 -0.477,0.062 -0.57,0.062 -1.15,0 -1.15,-0.632 -1.15,-1.122 l 0,-4.742 1.687,0 0,-0.95 -1.688,0 0,-2.059 -1.26,0.566 0,1.492 z m 6.704,0 -1.257,0 0,7.75 1.256,0 0,-4.572 c 0,-1.046 0.352,-2.106 1.75,-2.106 0.232,0 0.447,0.05 0.676,0.08 l 0,-1.306 c -1.228,0 -1.874,0.136 -2.396,1.318 l -0.03,0 0,-1.164 z m 4.273,0 -1.456,0 2.623,7.75 -0.875,2.93 1.306,0 3.513,-10.68 -1.362,0 -1.858,6.307 -0.03,0 -1.864,-6.309 z"
     id="path10-3"
     style="fill-rule:nonzero;stroke:none;stroke-opacity:1;fill:#fefefe;fill-opacity:1" />
</svg>
